# xmcd
#
# Track frame offsets: 
#        150
#        10347
#        19832
#        32172
#        42687
#        52732
#        65525
#        76465
#        89085
#        99842
#        111792
#        123535
#        134545
#        144117
#        158725
#        170282
#        182422
#        196997
#        209637
#        220355
#        233140
#        245447
#        256770
#        266657
#        278672
#
# Disc length: 3921 seconds
#
# Revision: 0
# Processed by: cddbd v1.5.1PL0 Copyright (c) Steve Scherf et al.
# Submitted via: ExactAudioCopy v0.95a5
#
DISCID=620f4f19
DTITLE=Various Artist - Don't Freeze On Me
DYEAR=1900
DGENRE=Blues
TTITLE0=Ella Thomas and The Johnny Heartsman Band - Introducing A Fool
TTITLE1=Ella Thomas and The Johnny Heartsman Band - Understanding
TTITLE2=Olive Brown - Roll Like A Big Wheel
TTITLE3=Blanche Thomas - You Ain't So Such A Much
TTITLE4=Dell Graham and The Que Martin Band - Work With It
TTITLE5=Delilah and The Johnny Heartsman Band - I'll Rock You Baby
TTITLE6=Delilah and The Johnny Heartsman Band - Worried Feeling
TTITLE7=Big Mama Thorton - Tomcat
TTITLE8=Big Mama Thorton - Big Mama's Coming
TTITLE9=Big Mama Thorton - You Did Me Wrong
TTITLE10=Big Mama Thorton - Mercy
TTITLE11=Big Mama Thorton - Don't Do Me This Way
TTITLE12=Ella Thomas and The Johnny Heartsman Band - Ain't That The Trut
TTITLE12=h
TTITLE13=Mary Ann Miles and Ray Agee - Baby's Coming Home
TTITLE14=Marie Adams - Old Feeling (That Same Old Feeling)
TTITLE15=Camille La Vah - Let's Steal Away
TTITLE16=Ella Thomas and The Johnny Heartsman Band - I'm Your Part Time 
TTITLE16=Love
TTITLE17=Al and Nettie With The Jimmy McCracklin Band - Now You Know
TTITLE18=Sugar Pie DeSanto - Strange Feeling
TTITLE19=Betty James - I'm A Little Mixed Up
TTITLE20=Betty James - Help Me To Find My Love
TTITLE21=Sugar Pie DeSanto - Going Back Where I Belong
TTITLE22=Jessie Mae - Don't Freeze On Me
TTITLE23=Sugar Pie DeSanto - Use What You Got
TTITLE24=Delilah - Packin' Up
EXTD=
EXTT0=
EXTT1=
EXTT2=
EXTT3=
EXTT4=
EXTT5=
EXTT6=
EXTT7=
EXTT8=
EXTT9=
EXTT10=
EXTT11=
EXTT12=
EXTT13=
EXTT14=
EXTT15=
EXTT16=
EXTT17=
EXTT18=
EXTT19=
EXTT20=
EXTT21=
EXTT22=
EXTT23=
EXTT24=
PLAYORDER=
